<?xml version="1.0" standalone="no"?>
<!DOCTYPE svg PUBLIC "-//W3C//DTD SVG 20010904//EN"
 "http://www.w3.org/TR/2001/REC-SVG-20010904/DTD/svg10.dtd">
<svg version="1.0" xmlns="http://www.w3.org/2000/svg"
 width="300.000000pt" height="300.000000pt" viewBox="0 0 300.000000 300.000000"
 preserveAspectRatio="xMidYMid meet">

<g transform="translate(0.000000,300.000000) scale(0.100000,-0.100000)"
fill="#000000" stroke="none">
<path d="M0 1500 l0 -1500 1500 0 1500 0 0 1500 0 1500 -1500 0 -1500 0 0
-1500z m705 1474 c79 -20 139 -56 175 -106 37 -50 37 -56 4 -64 -53 -13 -50
-92 3 -106 29 -7 31 -11 24 -36 -22 -75 -90 -151 -174 -196 l-48 -25 43 -11
c133 -34 230 -99 277 -187 6 -13 11 -71 11 -143 0 -99 -3 -128 -19 -158 -25
-50 -106 -124 -169 -156 -102 -52 -147 -56 -489 -49 -172 3 -313 10 -313 15 0
4 14 8 30 8 48 0 99 26 110 56 7 17 10 215 8 560 -3 530 -3 534 -24 555 -14
13 -39 23 -68 26 -25 3 -46 11 -46 17 0 19 590 19 665 0z m705 -224 c0 -5 -11
-10 -25 -10 -21 0 -76 -21 -87 -33 -1 -1 -5 -132 -8 -292 l-5 -290 -64 4 c-55
3 -68 7 -84 28 -15 19 -27 24 -48 21 l-29 -5 0 237 c0 140 -4 249 -10 267 -13
35 -44 52 -112 60 -26 3 -48 10 -48 14 0 5 117 9 260 9 167 0 260 -4 260 -10z
m-245 -660 c50 -12 864 -12 923 -1 24 5 53 18 66 30 12 11 25 21 29 21 4 0 5
-28 1 -62 -3 -35 -9 -127 -12 -206 -4 -78 -11 -143 -16 -145 -5 -1 -16 25 -26
58 -20 72 -32 97 -76 152 -48 59 -128 96 -209 97 -102 2 -99 11 -105 -287 l-5
-252 -81 4 c-103 4 -126 -7 -122 -56 3 -39 11 -45 76 -63 26 -7 62 -28 88 -52
l44 -41 0 -223 0 -224 -87 0 c-49 0 -139 -3 -200 -7 -98 -5 -113 -4 -113 9 0
12 15 17 60 20 45 3 66 10 83 26 l22 23 2 532 c2 415 0 537 -10 557 -17 35
-67 45 -140 31 -109 -23 -200 -110 -255 -243 -15 -37 -31 -68 -36 -68 -5 0 -6
38 -2 88 3 48 9 137 12 197 7 138 10 147 33 117 9 -13 35 -27 56 -32z m122
-422 c-3 -232 -7 -293 -22 -338 -60 -188 -175 -284 -357 -297 -99 -7 -142 4
-183 47 -63 65 -17 170 75 170 51 0 82 -27 123 -110 35 -70 61 -85 89 -53 35
41 41 86 46 339 l4 250 29 11 c16 6 29 18 29 26 0 51 125 237 160 237 10 0 11
-59 7 -282z m713 -249 c40 -53 729 -847 741 -855 8 -4 10 92 7 352 -4 351 -4
360 -27 412 -27 60 -58 89 -107 98 -19 3 -34 11 -34 18 0 15 393 11 398 -4 2
-5 -6 -10 -18 -10 -48 0 -97 -38 -127 -97 l-28 -58 -3 -552 c-2 -322 -7 -553
-12 -553 -5 0 -217 236 -470 525 -253 288 -465 527 -471 531 -17 10 -7 -831
10 -876 24 -63 59 -100 107 -112 91 -25 49 -33 -166 -33 -161 0 -210 3 -210
13 0 6 10 12 23 12 48 1 104 37 134 87 l28 48 3 471 3 471 -51 47 c-51 48
-103 76 -140 76 -18 0 -26 10 -16 21 2 2 94 3 203 2 l198 -1 25 -33z m-95
-568 c3 -5 1 -12 -5 -16 -5 -3 -10 1 -10 9 0 18 6 21 15 7z"/>
<path d="M454 2939 c-39 -20 -44 -50 -44 -279 l0 -220 63 0 c147 0 227 100
227 285 0 87 -36 169 -87 198 -39 22 -130 31 -159 16z"/>
<path d="M410 2115 c0 -177 4 -272 11 -289 16 -35 67 -49 153 -44 146 10 219
82 233 231 14 163 -59 312 -175 351 -28 10 -80 16 -134 16 l-88 0 0 -265z"/>
</g>
</svg>
