<?xml version="1.0" standalone="no"?>
<!DOCTYPE svg PUBLIC "-//W3C//DTD SVG 20010904//EN"
 "http://www.w3.org/TR/2001/REC-SVG-20010904/DTD/svg10.dtd">
<svg version="1.0" xmlns="http://www.w3.org/2000/svg"
 width="500.000000pt" height="500.000000pt" viewBox="0 0 500.000000 500.000000"
 preserveAspectRatio="xMidYMid meet">

<g transform="translate(0.000000,500.000000) scale(0.100000,-0.100000)"
fill="#000000" stroke="none">
<path d="M0 2500 l0 -2500 2500 0 2500 0 0 2500 0 2500 -2500 0 -2500 0 0
-2500z m3278 888 c-6 -18 -28 -21 -28 -4 0 9 7 16 16 16 9 0 14 -5 12 -12z
m-1438 -13 c0 -8 12 -23 27 -32 25 -17 71 -18 600 -21 l573 -3 0 -29 c0 -34
31 -60 73 -60 29 0 99 -31 130 -58 14 -13 17 -33 17 -127 0 -208 -19 -257 -52
-134 -51 187 -161 305 -316 338 -111 23 -181 6 -201 -49 -8 -23 -11 -234 -11
-722 0 -741 0 -741 51 -769 13 -6 57 -14 98 -18 56 -4 76 -10 76 -20 0 -12
-59 -14 -375 -14 -339 0 -375 2 -378 17 -3 13 6 16 55 17 75 0 121 17 147 52
21 28 21 37 24 695 2 367 0 691 -3 720 -8 63 -29 88 -82 98 -49 9 -162 -10
-216 -37 -104 -53 -198 -167 -252 -309 -17 -44 -32 -70 -42 -70 -13 0 -14 9
-9 53 3 28 10 113 15 187 6 74 13 174 16 223 5 65 10 87 21 87 8 0 14 -7 14
-15z m-845 -69 c199 -55 290 -159 288 -326 -1 -84 -31 -161 -85 -227 -45 -53
-138 -122 -198 -146 l-35 -14 76 -17 c144 -32 283 -120 345 -218 23 -36 24
-45 24 -221 l0 -183 -28 -45 c-41 -64 -142 -153 -214 -188 -90 -44 -204 -71
-312 -72 -50 -1 -239 1 -421 4 -270 4 -330 7 -330 18 0 10 19 16 58 20 34 4
70 15 85 26 53 39 53 41 50 794 -3 692 -3 698 -24 726 -22 29 -76 51 -131 52
-22 1 -33 6 -33 16 0 12 39 15 263 18 414 5 554 2 622 -17z m750 -78 c-4 -51
-13 -158 -20 -238 -13 -154 -9 -188 26 -197 20 -6 20 -10 17 -662 -4 -651 -4
-657 -27 -731 -30 -100 -65 -162 -129 -232 -178 -192 -574 -215 -622 -36 -29
106 57 190 168 167 49 -10 79 -43 128 -141 40 -79 47 -88 72 -88 38 0 66 32
88 100 17 51 19 119 22 1025 2 773 0 979 -10 1010 -17 52 -58 74 -147 82 -50
4 -71 10 -71 19 0 11 47 14 256 14 l256 0 -7 -92z m1950 11 c33 -41 263 -309
510 -594 l450 -518 3 459 c2 496 -1 531 -52 612 -29 46 -65 71 -123 86 -94 24
-48 31 220 34 233 2 267 0 267 -13 0 -9 -9 -15 -22 -15 -34 -1 -100 -34 -130
-66 -15 -16 -37 -51 -50 -79 l-23 -50 -5 -745 c-4 -570 -8 -745 -17 -745 -7 0
-280 306 -608 680 -328 374 -610 694 -626 710 l-30 30 3 -575 3 -575 24 -53
c29 -63 76 -107 133 -123 24 -6 49 -13 56 -15 8 -2 12 -9 10 -16 -3 -8 -82
-11 -283 -11 -252 0 -280 2 -283 16 -3 13 4 17 28 17 68 0 153 58 190 130 36
71 40 139 40 731 l0 578 -66 56 c-76 64 -126 92 -183 101 -25 4 -41 12 -41 20
0 12 45 14 272 12 l272 -3 61 -76z"/>
<path d="M663 3255 c-56 -24 -58 -32 -61 -364 l-3 -304 88 5 c48 3 106 13 128
22 57 24 109 79 141 150 37 81 46 240 19 332 -38 131 -193 211 -312 159z"/>
<path d="M622 2514 l-23 -6 3 -358 c3 -346 4 -360 24 -387 65 -87 341 -56 429
49 59 70 69 109 69 268 0 128 -2 152 -23 203 -42 106 -127 190 -219 217 -41
12 -224 22 -260 14z"/>
</g>
</svg>
